<?xml version="1.0" standalone="no"?>
<!DOCTYPE svg PUBLIC "-//W3C//DTD SVG 20010904//EN"
 "http://www.w3.org/TR/2001/REC-SVG-20010904/DTD/svg10.dtd">
<svg version="1.0" xmlns="http://www.w3.org/2000/svg"
 width="291.000000pt" height="321.000000pt" viewBox="0 0 291.000000 321.000000"
 preserveAspectRatio="xMidYMid meet">
<metadata>
Created by potrace 1.15, written by Peter Selinger 2001-2017
</metadata>
<g transform="translate(0.000000,321.000000) scale(0.100000,-0.100000)"
fill="#000000" stroke="none">
<path d="M1410 3077 c-50 -20 -1160 -664 -1189 -690 -52 -48 -51 -36 -51 -769
0 -644 1 -685 19 -724 10 -23 32 -50 47 -61 73 -52 1163 -675 1196 -684 50
-13 93 -1 188 54 41 24 300 173 575 331 275 158 512 300 527 316 15 16 32 46
37 67 15 54 15 1344 0 1398 -6 22 -26 53 -43 70 -18 16 -185 118 -372 225
-186 107 -446 256 -576 332 -254 148 -290 161 -358 135z m345 -747 c222 -37
226 -39 223 -170 l-2 -85 -3 83 c-3 62 -7 82 -18 82 -11 0 -15 -19 -17 -77 -4
-97 -4 -97 -164 -47 -117 36 -120 36 -249 31 -151 -6 -221 -26 -300 -85 -56
-41 -134 -150 -164 -227 -25 -64 -27 -45 -2 26 73 214 221 312 465 311 99 0
118 -4 312 -58 83 -24 94 -18 93 48 l-2 53 -6 -42 c-4 -24 -10 -46 -14 -50 -8
-8 -51 1 -201 41 -227 60 -438 16 -562 -116 -82 -88 -135 -243 -132 -384 l1
-79 7 65 c6 62 7 61 9 -40 2 -58 7 -118 11 -135 6 -20 7 -7 5 40 l-4 70 13
-87 c36 -229 129 -370 281 -427 108 -41 240 -50 362 -25 l32 6 1 221 c0 146 4
223 11 228 20 12 200 11 215 -2 11 -9 14 -42 12 -158 l-2 -146 -3 143 c-2 78
-7 142 -11 142 -4 0 -6 -116 -4 -258 2 -147 -1 -269 -7 -283 -12 -33 -75 -53
-250 -80 -153 -24 -303 -22 -381 5 -25 9 -34 13 -20 10 14 -3 77 -8 140 -11
140 -7 386 24 473 59 l29 11 -6 270 c-3 149 -7 271 -9 273 -1 1 -38 4 -82 5
l-80 4 -5 -220 c-4 -121 -7 -221 -8 -222 -18 -19 -235 -44 -292 -33 -44 7 -44
8 -10 10 31 2 29 4 -25 16 -33 8 -76 16 -96 18 -39 3 -62 13 -55 24 2 4 -7 8
-21 9 -32 1 -22 -8 47 -47 52 -29 35 -33 -21 -4 -49 25 -157 151 -193 226
-131 274 -97 641 75 809 62 60 150 103 258 125 111 22 202 14 356 -30 66 -19
123 -32 127 -30 4 3 8 19 8 35 0 35 -14 42 -117 58 -167 26 -262 31 -360 20
-54 -7 -119 -13 -144 -14 -51 -2 -184 -59 -175 -74 4 -5 1 -13 -5 -17 -8 -5
-9 -3 -4 6 5 8 3 11 -6 8 -8 -3 -13 -10 -12 -16 1 -5 -8 -18 -20 -28 l-22 -19
19 23 c32 38 4 24 -41 -20 -45 -44 -60 -76 -20 -42 l22 19 -19 -22 c-10 -12
-23 -21 -29 -20 -6 1 -25 -23 -44 -53 -18 -30 -40 -64 -48 -75 -32 -41 -47
-118 -52 -265 -3 -103 -1 -141 6 -130 6 8 11 49 12 90 2 67 3 63 9 -40 10
-144 39 -260 95 -375 83 -172 215 -265 416 -293 60 -9 61 -10 19 -11 -25 0
-67 5 -95 13 -27 7 -61 16 -75 19 -14 4 -7 -2 15 -13 22 -11 33 -20 25 -20 -9
0 -51 18 -95 40 -91 46 -80 27 15 -25 36 -20 54 -33 40 -30 -14 4 -43 17 -65
30 -156 90 -264 231 -331 435 -27 81 -28 94 -28 265 1 142 4 190 17 225 10 28
14 33 11 15 -26 -135 -32 -290 -14 -370 7 -29 8 -16 4 50 -14 243 54 462 190
611 44 49 78 72 60 42 -4 -8 -3 -10 2 -5 5 5 9 14 9 20 0 19 103 75 190 104
76 26 89 27 270 26 163 0 206 -4 303 -25 61 -14 112 -21 112 -17 0 11 -127 38
-260 56 -217 29 -421 3 -550 -69 -108 -60 -180 -135 -252 -261 -16 -28 -27
-43 -23 -32 11 37 70 126 118 180 85 96 204 161 347 190 101 20 296 18 435 -5z"/>
</g>
</svg>
